<?xml version="1.0" encoding="utf-8"?>
<!-- Generator: Adobe Illustrator 22.1.0, SVG Export Plug-In . SVG Version: 6.00 Build 0)  -->
<svg version="1.1" id="Layer_1" xmlns="http://www.w3.org/2000/svg" xmlns:xlink="http://www.w3.org/1999/xlink" x="0px" y="0px"
	 viewBox="0 0 40.4 40.4" style="enable-background:new 0 0 40.4 40.4;" xml:space="preserve">
<style type="text/css">
	.st0{fill:#FFFFFF;}
	.st1{fill:#390099;}
</style>
<g id="XMLID_752_">
	<path id="XMLID_1675_" class="st0" d="M20,39.6L20,39.6c-10.5,0-19-8.5-19-19v0c0-10.5,8.5-19,19-19h0c10.5,0,19,8.5,19,19v0
		C39,31,30.5,39.6,20,39.6z"/>
	<g id="XMLID_753_">
		<path id="XMLID_761_" class="st1" d="M17.1,26.9c0.6-0.1,1.1-0.3,1.5-0.7c0.4-0.3,0.7-0.6,0.9-1c0.4-0.6,0.6-1.3,0.6-2.1
			c0-0.8-0.2-1.4-0.5-2c-0.3-0.5-0.9-0.9-1.5-1.2c0.4-0.2,0.8-0.5,1-0.8c0.4-0.5,0.6-1.1,0.6-2c0-0.8-0.2-1.5-0.6-2
			c-0.7-0.9-1.8-1.4-3.5-1.4H9.2V27h6C15.9,27,16.5,27,17.1,26.9z M11.9,16h2.9c0.6,0,1.2,0.1,1.6,0.2c0.5,0.2,0.7,0.6,0.7,1.2
			c0,0.6-0.2,1-0.5,1.2c-0.4,0.2-0.8,0.3-1.4,0.3h-3.2V16z M11.9,24.7v-3.6h3.3c0.6,0,1,0.1,1.3,0.2c0.6,0.3,0.8,0.7,0.8,1.4
			c0,0.8-0.3,1.4-0.9,1.7c-0.3,0.2-0.8,0.2-1.3,0.2H11.9z"/>
		<g id="XMLID_755_">
			<path id="XMLID_758_" class="st1" d="M22.4,26.2c1,0.8,2.2,1.2,3.5,1.2c1.6,0,2.8-0.5,3.7-1.4c0.6-0.6,0.9-1.2,1-1.8h-2.6
				c-0.2,0.3-0.3,0.5-0.5,0.7c-0.4,0.3-0.8,0.5-1.4,0.5c-0.6,0-1-0.1-1.4-0.4c-0.6-0.4-1-1.1-1-2.1h7.2c0-0.9,0-1.5-0.1-2
				c-0.1-0.8-0.4-1.5-0.8-2c-0.4-0.7-1-1.2-1.7-1.5c-0.7-0.3-1.5-0.5-2.3-0.5c-1.4,0-2.6,0.5-3.5,1.4c-0.9,0.9-1.4,2.2-1.4,3.9
				C20.9,24,21.4,25.3,22.4,26.2z M24.3,19.6c0.4-0.4,0.9-0.6,1.5-0.6c0.6,0,1.1,0.2,1.5,0.5c0.4,0.4,0.6,0.9,0.7,1.6h-4.4
				C23.7,20.5,23.9,20,24.3,19.6z"/>
			<rect id="XMLID_757_" x="22.7" y="14.5" class="st1" width="5.8" height="1.3"/>
		</g>
	</g>
</g>
</svg>
