<?xml version="1.0" encoding="utf-8"?>
<!-- Generator: Adobe Illustrator 22.1.0, SVG Export Plug-In . SVG Version: 6.00 Build 0)  -->
<svg version="1.1" id="Layer_1" xmlns="http://www.w3.org/2000/svg" xmlns:xlink="http://www.w3.org/1999/xlink" x="0px" y="0px"
	 viewBox="0 0 40.4 40.4" style="enable-background:new 0 0 40.4 40.4;" xml:space="preserve">
<style type="text/css">
	.st0{fill:#FFFFFF;}
	.st1{fill:#390099;}
</style>
<g id="XMLID_1693_">
	<path id="XMLID_1695_" class="st0" d="M19.7,39.8L19.7,39.8c-10.5,0-19-8.5-19-19v0c0-10.5,8.5-19,19-19h0c10.5,0,19,8.5,19,19v0
		C38.7,31.3,30.2,39.8,19.7,39.8z"/>
	<path id="XMLID_1694_" class="st1" d="M16.8,32.3h4.6V20.7h3.2l0.3-3.9h-3.6c0,0,0-1.5,0-2.2c0-0.9,0.2-1.3,1.1-1.3
		c0.7,0,2.5,0,2.5,0v-4c0,0-2.6,0-3.2,0c-3.4,0-5,1.5-5,4.4c0,2.5,0,3.1,0,3.1h-2.4v3.9h2.4V32.3z"/>
</g>
</svg>
