<?xml version="1.0" encoding="utf-8"?>
<!-- Generator: Adobe Illustrator 22.1.0, SVG Export Plug-In . SVG Version: 6.00 Build 0)  -->
<svg version="1.1" id="Layer_1" xmlns="http://www.w3.org/2000/svg" xmlns:xlink="http://www.w3.org/1999/xlink" x="0px" y="0px"
	 viewBox="0 0 40.4 40.4" style="enable-background:new 0 0 40.4 40.4;" xml:space="preserve">
<style type="text/css">
	.st0{fill:#FFFFFF;}
	.st1{fill:#390099;}
</style>
<g id="XMLID_1683_">
	<path id="XMLID_1692_" class="st0" d="M20.6,39.6L20.6,39.6c-10.5,0-19-8.5-19-19v0c0-10.5,8.5-19,19-19l0,0c10.5,0,19,8.5,19,19v0
		C39.7,31,31.1,39.6,20.6,39.6z"/>
	<g id="XMLID_1684_">
		<path id="XMLID_1689_" class="st1" d="M20.6,12c2.8,0,3.1,0,4.2,0.1c1,0,1.6,0.2,1.9,0.4c0.5,0.2,0.8,0.4,1.2,0.8
			c0.4,0.4,0.6,0.7,0.8,1.2c0.1,0.4,0.3,0.9,0.4,1.9c0.1,1.1,0.1,1.4,0.1,4.2s0,3.1-0.1,4.2c0,1-0.2,1.6-0.4,1.9
			c-0.2,0.5-0.4,0.8-0.8,1.2c-0.4,0.4-0.7,0.6-1.2,0.8c-0.4,0.1-0.9,0.3-1.9,0.4c-1.1,0.1-1.4,0.1-4.2,0.1c-2.8,0-3.1,0-4.2-0.1
			c-1,0-1.6-0.2-1.9-0.4c-0.5-0.2-0.8-0.4-1.2-0.8c-0.4-0.4-0.6-0.7-0.8-1.2c-0.1-0.4-0.3-0.9-0.4-1.9c-0.1-1.1-0.1-1.4-0.1-4.2
			s0-3.1,0.1-4.2c0-1,0.2-1.6,0.4-1.9c0.2-0.5,0.4-0.8,0.8-1.2c0.4-0.4,0.7-0.6,1.2-0.8c0.4-0.1,0.9-0.3,1.9-0.4
			C17.5,12,17.8,12,20.6,12 M20.6,10.1c-2.8,0-3.2,0-4.3,0.1c-1.1,0.1-1.9,0.2-2.5,0.5c-0.7,0.3-1.3,0.6-1.8,1.2S11,13,10.7,13.7
			c-0.3,0.7-0.4,1.4-0.5,2.5c-0.1,1.1-0.1,1.5-0.1,4.3c0,2.8,0,3.2,0.1,4.3c0.1,1.1,0.2,1.9,0.5,2.5c0.3,0.7,0.6,1.3,1.2,1.8
			c0.6,0.6,1.2,0.9,1.8,1.2c0.7,0.3,1.4,0.4,2.5,0.5c1.1,0.1,1.5,0.1,4.3,0.1c2.8,0,3.2,0,4.3-0.1c1.1-0.1,1.9-0.2,2.5-0.5
			c0.7-0.3,1.3-0.6,1.8-1.2c0.6-0.6,0.9-1.2,1.2-1.8c0.3-0.7,0.4-1.4,0.5-2.5c0.1-1.1,0.1-1.5,0.1-4.3c0-2.8,0-3.2-0.1-4.3
			c-0.1-1.1-0.2-1.9-0.5-2.5c-0.3-0.7-0.6-1.3-1.2-1.8c-0.6-0.6-1.2-0.9-1.8-1.2c-0.7-0.3-1.4-0.4-2.5-0.5
			C23.8,10.1,23.5,10.1,20.6,10.1"/>
		<path id="XMLID_1686_" class="st1" d="M20.6,15.2c-3,0-5.4,2.4-5.4,5.4c0,3,2.4,5.4,5.4,5.4c3,0,5.4-2.4,5.4-5.4
			C26,17.6,23.6,15.2,20.6,15.2 M20.6,24c-1.9,0-3.5-1.6-3.5-3.5c0-1.9,1.6-3.5,3.5-3.5s3.5,1.6,3.5,3.5C24.1,22.5,22.5,24,20.6,24"
			/>
		<path id="XMLID_1685_" class="st1" d="M27.4,15c0,0.7-0.6,1.3-1.3,1.3c-0.7,0-1.3-0.6-1.3-1.3c0-0.7,0.6-1.3,1.3-1.3
			C26.9,13.7,27.4,14.3,27.4,15"/>
	</g>
</g>
</svg>
