<?xml version="1.0" encoding="utf-8"?>
<!-- Generator: Adobe Illustrator 22.1.0, SVG Export Plug-In . SVG Version: 6.00 Build 0)  -->
<svg version="1.1" id="Layer_1" xmlns="http://www.w3.org/2000/svg" xmlns:xlink="http://www.w3.org/1999/xlink" x="0px" y="0px"
	 viewBox="0 0 40.4 40.4" style="enable-background:new 0 0 40.4 40.4;" xml:space="preserve">
<style type="text/css">
	.st0{fill:#FFFFFF;}
	.st1{fill:#390099;}
</style>
<g id="XMLID_1707_">
	<path id="XMLID_1713_" class="st0" d="M19.8,39.2L19.8,39.2c-10.5,0-19-8.5-19-19v0c0-10.5,8.5-19,19-19l0,0c10.5,0,19,8.5,19,19v0
		C38.8,30.7,30.3,39.2,19.8,39.2z"/>
	<g id="XMLID_1708_">
		<g id="XMLID_1710_">
			<rect id="XMLID_1712_" x="11.1" y="15.9" class="st1" width="3.9" height="12.7"/>
			<path id="XMLID_1711_" class="st1" d="M13.1,14.2c1.3,0,2.3-1.1,2.3-2.3s-1-2.3-2.3-2.3c-1.3,0-2.3,1.1-2.3,2.3
				S11.8,14.2,13.1,14.2z"/>
		</g>
		<path id="XMLID_1709_" class="st1" d="M21.4,21.9c0-1.8,0.8-2.9,2.4-2.9c1.4,0,2.1,1,2.1,2.9c0,1.8,0,6.7,0,6.7h3.9
			c0,0,0-4.6,0-8.1c0-3.4-1.9-5.1-4.6-5.1c-2.7,0-3.8,2.1-3.8,2.1v-1.7h-3.8v12.7h3.8C21.4,28.6,21.4,23.9,21.4,21.9z"/>
	</g>
</g>
</svg>
