<?xml version="1.0" encoding="utf-8"?>
<!-- Generator: Adobe Illustrator 22.1.0, SVG Export Plug-In . SVG Version: 6.00 Build 0)  -->
<svg version="1.1" id="Layer_1" xmlns="http://www.w3.org/2000/svg" xmlns:xlink="http://www.w3.org/1999/xlink" x="0px" y="0px"
	 viewBox="0 0 40.4 40.4" style="enable-background:new 0 0 40.4 40.4;" xml:space="preserve">
<style type="text/css">
	.st0{fill:#FFFFFF;}
	.st1{fill:#390099;}
</style>
<g id="XMLID_1728_">
	<path id="XMLID_1858_" class="st0" d="M19.9,39.2L19.9,39.2c-10.5,0-19-8.5-19-19v0c0-10.5,8.5-19,19-19h0c10.5,0,19,8.5,19,19v0
		C38.9,30.7,30.4,39.2,19.9,39.2z"/>
	<path class="st1" d="M29.7,15.2c-0.2-0.9-0.9-1.6-1.8-1.8c-1.6-0.4-8-0.4-8-0.4s-6.4,0-8,0.4c-0.9,0.2-1.6,0.9-1.8,1.8
		c-0.4,1.6-0.4,5-0.4,5s0,3.4,0.4,5c0.2,0.9,0.9,1.6,1.8,1.8c1.6,0.4,8,0.4,8,0.4s6.4,0,8-0.4c0.9-0.2,1.6-0.9,1.8-1.8
		c0.4-1.6,0.4-5,0.4-5S30.1,16.8,29.7,15.2z M17.8,23.2v-6.1l5.4,3L17.8,23.2z"/>
</g>
</svg>
